<!-- Generator: Adobe Illustrator 21.1.0, SVG Export Plug-In  -->
<svg version="1.1"
	 xmlns="http://www.w3.org/2000/svg" xmlns:xlink="http://www.w3.org/1999/xlink" xmlns:a="http://ns.adobe.com/AdobeSVGViewerExtensions/3.0/"
	 x="0px" y="0px" width="762.088px" height="130.996px" viewBox="0 0 762.088 130.996"
	 style="enable-background:new 0 0 762.088 130.996;" xml:space="preserve">
<style type="text/css">
	.st0{fill:#0EB975;}
	.st1{opacity:0.49;fill:#0EB975;}
	.st2{fill:#3884A6;}
	.st3{opacity:0.3;fill:#3884A6;}
	.st4{fill:#D0D809;}
	.st5{opacity:0.3;fill:#D0D809;}
	.st6{fill:#28378B;}
	.st7{opacity:0.3;fill:#28378B;}
	.st8{font-family:'DistrictPro-Thin';}
	.st9{font-size:22px;}
	.st10{font-size:25px;}
</style>
<defs>
</defs>
<g>
	<path class="st0" d="M23.592,23.603l-9.52-9.514C5.377,22.783,0,35.067,0,48.067h13.463C13.463,39.067,17.334,29.861,23.592,23.603
		z"/>
	<path class="st0" d="M48.044,82.624v13.463c13,0,25.278-5.377,33.972-14.072l-9.52-9.52C66.238,78.754,57.044,82.624,48.044,82.624
		z"/>
	<path class="st0" d="M96.087,48.067H82.624c0,10-3.871,18.183-10.128,24.44l9.52,9.526C90.71,73.339,96.087,61.067,96.087,48.067z"
		/>
	<path class="st0" d="M48.044,13.463V0c-13,0-25.278,5.378-33.972,14.072l9.52,9.52C29.85,17.334,38.044,13.463,48.044,13.463z"/>
	<path class="st0" d="M23.592,72.496l-9.273,9.273l9.273-9.262c-6.258-6.258-10.128-14.44-10.128-24.44H0
		c0,27,21.044,48.02,48.044,48.02V82.624C38.044,82.624,29.85,78.754,23.592,72.496z"/>
	<g>
		<path class="st0" d="M81.81,14.278l-9.314,9.325c6.258,6.258,10.128,15.464,10.128,24.464h13.463
			C96.088,35.064,90.574,23.046,81.81,14.278z"/>
		<path class="st1" d="M48.044,13.463c9,0,18.194,3.871,24.452,10.128l9.314-9.314C73.049,5.515,61.041,0,48.044,0V13.463z"/>
	</g>
</g>
<g>
	<path class="st2" d="M245.592,23.603l-9.52-9.514C227.377,22.783,222,35.067,222,48.067h13.463
		C235.463,39.067,239.334,29.861,245.592,23.603z"/>
	<path class="st2" d="M270.044,82.624v13.463c13,0,25.278-5.377,33.972-14.072l-9.52-9.52
		C288.238,78.754,279.044,82.624,270.044,82.624z"/>
	<path class="st2" d="M270.044,13.463V0c-13,0-25.278,5.378-33.972,14.072l9.52,9.52C251.85,17.334,260.044,13.463,270.044,13.463z"
		/>
	<path class="st2" d="M245.592,72.496l-9.273,9.273l9.273-9.262c-6.258-6.258-10.128-14.44-10.128-24.44H222
		c0,27,21.044,48.02,48.044,48.02V82.624C260.044,82.624,251.85,78.754,245.592,72.496z"/>
	<path class="st3" d="M294.496,23.592l9.273-9.273l-9.273,9.285c6.258,6.258,10.128,15.464,10.128,24.464h13.463
		c0-26-22.044-48.067-48.044-48.067v13.463C279.044,13.463,288.238,17.334,294.496,23.592z"/>
	<path class="st2" d="M294.496,72.507l9.52,9.526c4.23-4.23,7.666-9.311,10.088-14.907l-12.259-5.303
		C300.098,65.846,297.59,69.413,294.496,72.507z"/>
	<path class="st3" d="M304.624,48.067c0,5.055-0.992,9.644-2.779,13.757l12.259,5.303c2.557-5.906,3.983-12.384,3.983-19.06H304.624
		z"/>
</g>
<g>
	<path class="st4" d="M467.592,23.603l-9.52-9.514C449.377,22.783,444,35.067,444,48.067h13.463
		C457.463,39.067,461.334,29.861,467.592,23.603z"/>
	<path class="st4" d="M492.044,82.624v13.463c13,0,25.278-5.377,33.972-14.072l-9.52-9.52
		C510.238,78.754,501.044,82.624,492.044,82.624z"/>
	<path class="st4" d="M540.087,48.067h-13.463c0,10-3.871,18.183-10.128,24.44l9.52,9.526
		C534.71,73.339,540.087,61.067,540.087,48.067z"/>
	<path class="st4" d="M492.044,13.463V0c-13,0-25.278,5.378-33.972,14.072l9.52,9.52C473.85,17.334,482.044,13.463,492.044,13.463z"
		/>
	<path class="st4" d="M467.592,72.496l-9.273,9.273l9.273-9.262c-6.258-6.258-10.128-14.44-10.128-24.44H444
		c0,27,21.044,48.02,48.044,48.02V82.624C482.044,82.624,473.85,78.754,467.592,72.496z"/>
	<path class="st5" d="M516.496,23.592l9.273-9.273l-9.273,9.285c6.258,6.258,10.128,15.464,10.128,24.464h13.463
		c0-26-22.044-48.067-48.044-48.067v13.463C501.044,13.463,510.238,17.334,516.496,23.592z"/>
</g>
<g>
	<path class="st6" d="M689.592,23.603l-9.52-9.514C671.377,22.783,666,35.067,666,48.067h13.463
		C679.463,39.067,683.334,29.861,689.592,23.603z"/>
	<path class="st6" d="M714.044,82.624v13.463c13,0,25.278-5.377,33.972-14.072l-9.52-9.52
		C732.238,78.754,723.044,82.624,714.044,82.624z"/>
	<path class="st6" d="M762.087,48.067h-13.463c0,10-3.871,18.183-10.128,24.44l9.52,9.526
		C756.71,73.339,762.087,61.067,762.087,48.067z"/>
	<path class="st6" d="M714.044,13.463V0c-13,0-25.278,5.378-33.972,14.072l9.52,9.52C695.85,17.334,704.044,13.463,714.044,13.463z"
		/>
	<path class="st6" d="M689.592,72.496l-9.273,9.273l9.273-9.262c-6.258-6.258-10.128-14.44-10.128-24.44H666
		c0,27,21.044,48.02,48.044,48.02V82.624C704.044,82.624,695.85,78.754,689.592,72.496z"/>
	<g>
		<path class="st7" d="M714.044,0v13.463c9,0,18.194,3.871,24.452,10.128l9.273-9.273l-9.273,9.285
			c2.894,2.894,5.269,6.423,6.995,10.267l12.184-5.501C749.978,11.832,733.077,0,714.044,0z"/>
		<path class="st6" d="M745.491,33.87c2.006,4.467,3.133,9.359,3.133,14.197h13.463c0-6.967-1.595-13.645-4.413-19.698
			L745.491,33.87z"/>
	</g>
</g>
<g>
	<path d="M29.388,54.448c0.704,0.484,1.849,0.748,2.751,0.748c3.675,0,4.95-3.763,5.259-7.877c-0.946,2.068-2.662,2.948-4.643,2.948
		c-3.213,0-5.061-2.09-5.061-5.082c0-3.213,2.023-5.215,5.214-5.215c4.049,0,5.348,3.256,5.348,6.469
		c0,5.104-1.717,9.571-6.249,9.571c-1.034,0-2.398-0.33-3.059-0.771L29.388,54.448z M32.887,40.784
		c-2.662,0-4.247,1.849-4.247,4.489c0,2.552,1.629,4.181,4.203,4.181c2.618,0,4.4-1.849,4.4-4.247
		C37.244,43.886,36.21,40.784,32.887,40.784z"/>
	<path d="M40.455,47.979c0-4.951,1.782-8.009,5.28-8.009c3.499,0,5.281,3.058,5.281,8.009c0,4.973-1.782,8.031-5.281,8.031
		C42.237,56.01,40.455,52.952,40.455,47.979z M50.07,47.957c0-4.048-1.188-7.173-4.356-7.173c-3.191,0-4.313,3.146-4.313,7.218
		c0,4.048,1.122,7.194,4.313,7.194C48.904,55.196,50.07,52.028,50.07,47.957z"/>
	<path d="M53.215,44.129c0-1.937,0.813-4.158,3.212-4.158c2.244,0,3.19,1.936,3.19,4.137c0,1.826-0.813,4.136-3.234,4.136
		C54.293,48.243,53.215,46.395,53.215,44.129z M58.759,44.151c0-1.893-0.813-3.433-2.354-3.433c-1.541,0-2.333,1.562-2.333,3.366
		c0,1.166,0.396,3.389,2.354,3.389C58.275,47.473,58.759,45.405,58.759,44.151z M56.052,56.142l8.999-16.723l0.748,0.353
		l-8.999,16.744L56.052,56.142z M62.214,51.896c0-1.937,0.814-4.159,3.212-4.159c2.245,0,3.19,1.937,3.19,4.137
		c0,1.826-0.813,4.137-3.234,4.137C63.292,56.01,62.214,54.162,62.214,51.896z M67.759,51.918c0-1.893-0.814-3.433-2.354-3.433
		s-2.332,1.562-2.332,3.366c0,1.167,0.396,3.389,2.354,3.389C67.274,55.24,67.759,53.172,67.759,51.918z"/>
</g>
<g>
	<path d="M253.193,55.725c0.462-4.995,2.354-9.945,5.896-14.61h-9.109v-0.857h9.99v1.056c-3.564,4.577-5.303,8.978-5.699,14.412
		H253.193z"/>
	<path d="M262.455,47.98c0-4.951,1.782-8.009,5.28-8.009c3.499,0,5.281,3.058,5.281,8.009c0,4.973-1.782,8.031-5.281,8.031
		C264.237,56.011,262.455,52.953,262.455,47.98z M272.07,47.958c0-4.048-1.188-7.173-4.356-7.173c-3.191,0-4.313,3.146-4.313,7.218
		c0,4.048,1.122,7.194,4.313,7.194C270.904,55.197,272.07,52.029,272.07,47.958z"/>
	<path d="M275.215,44.13c0-1.937,0.813-4.158,3.212-4.158c2.244,0,3.19,1.936,3.19,4.137c0,1.826-0.813,4.136-3.234,4.136
		C276.293,48.244,275.215,46.396,275.215,44.13z M280.759,44.152c0-1.893-0.813-3.433-2.354-3.433c-1.541,0-2.333,1.562-2.333,3.366
		c0,1.166,0.396,3.389,2.354,3.389C280.275,47.474,280.759,45.406,280.759,44.152z M278.052,56.143l8.999-16.723l0.748,0.353
		l-8.999,16.744L278.052,56.143z M284.214,51.897c0-1.937,0.814-4.159,3.212-4.159c2.245,0,3.19,1.937,3.19,4.137
		c0,1.826-0.813,4.137-3.234,4.137C285.292,56.011,284.214,54.163,284.214,51.897z M289.759,51.919c0-1.893-0.814-3.433-2.354-3.433
		s-2.332,1.562-2.332,3.366c0,1.167,0.396,3.389,2.354,3.389C289.274,55.241,289.759,53.172,289.759,51.919z"/>
</g>
<g>
	<path d="M482.278,51.588c0,2.465-1.716,4.423-5.303,4.423c-3.564,0-5.28-1.958-5.28-4.423c0-2.068,1.1-3.433,3.256-4.114
		c-1.914-0.683-2.662-2.024-2.662-3.564c0-2.2,1.65-3.938,4.687-3.938c3.059,0,4.709,1.738,4.709,3.938
		c0,1.54-0.748,2.882-2.663,3.564C481.178,48.155,482.278,49.519,482.278,51.588z M476.975,47.869c-2.354,0-4.335,1.276-4.335,3.675
		c0,2.223,1.65,3.652,4.335,3.652c2.706,0,4.356-1.43,4.356-3.652C481.332,49.145,479.351,47.869,476.975,47.869z M476.975,40.784
		c-2.685,0-3.74,1.562-3.74,3.146c0,1.826,1.474,3.19,3.74,3.19c2.288,0,3.763-1.364,3.763-3.19
		C480.738,42.346,479.681,40.784,476.975,40.784z"/>
	<path d="M484.455,47.979c0-4.951,1.782-8.009,5.28-8.009c3.499,0,5.281,3.058,5.281,8.009c0,4.973-1.782,8.031-5.281,8.031
		C486.237,56.01,484.455,52.952,484.455,47.979z M494.07,47.957c0-4.048-1.188-7.173-4.356-7.173c-3.191,0-4.313,3.146-4.313,7.218
		c0,4.048,1.122,7.194,4.313,7.194C492.904,55.196,494.07,52.028,494.07,47.957z"/>
	<path d="M497.215,44.129c0-1.937,0.813-4.158,3.212-4.158c2.244,0,3.19,1.936,3.19,4.137c0,1.826-0.813,4.136-3.234,4.136
		C498.293,48.243,497.215,46.395,497.215,44.129z M502.759,44.151c0-1.893-0.813-3.433-2.354-3.433
		c-1.541,0-2.333,1.562-2.333,3.366c0,1.166,0.396,3.389,2.354,3.389C502.275,47.473,502.759,45.405,502.759,44.151z
		 M500.052,56.142l8.999-16.723l0.748,0.353l-8.999,16.744L500.052,56.142z M506.214,51.896c0-1.937,0.814-4.159,3.212-4.159
		c2.245,0,3.19,1.937,3.19,4.137c0,1.826-0.813,4.137-3.234,4.137C507.292,56.01,506.214,54.162,506.214,51.896z M511.759,51.918
		c0-1.893-0.814-3.433-2.354-3.433s-2.332,1.562-2.332,3.366c0,1.167,0.396,3.389,2.354,3.389
		C511.274,55.24,511.759,53.172,511.759,51.918z"/>
</g>
<g>
	<path d="M704.278,51.589c0,2.465-1.716,4.423-5.303,4.423c-3.564,0-5.28-1.958-5.28-4.423c0-2.068,1.1-3.433,3.256-4.114
		c-1.914-0.683-2.662-2.024-2.662-3.564c0-2.2,1.65-3.938,4.687-3.938c3.059,0,4.709,1.738,4.709,3.938
		c0,1.54-0.748,2.882-2.663,3.564C703.178,48.156,704.278,49.52,704.278,51.589z M698.975,47.87c-2.354,0-4.335,1.276-4.335,3.675
		c0,2.223,1.65,3.652,4.335,3.652c2.706,0,4.356-1.43,4.356-3.652C703.332,49.146,701.351,47.87,698.975,47.87z M698.975,40.785
		c-2.685,0-3.74,1.562-3.74,3.146c0,1.826,1.474,3.19,3.74,3.19c2.288,0,3.763-1.364,3.763-3.19
		C702.738,42.347,701.681,40.785,698.975,40.785z"/>
	<path d="M707.247,52.886c0.704,1.101,1.914,2.311,4.202,2.311c2.883,0,4.555-1.76,4.555-4.532c0-2.553-1.65-4.181-4.312-4.181
		c-1.452,0-2.971,0.748-3.828,2.09l-0.814-0.264l0.396-8.053h8.494v0.857h-7.657l-0.374,6.228c1.078-1.167,2.376-1.673,3.96-1.673
		c3.19,0,5.083,1.937,5.083,4.951c0,3.345-2.112,5.391-5.522,5.391c-2.003,0-3.961-0.88-4.863-2.597L707.247,52.886z"/>
	<path d="M719.215,44.13c0-1.937,0.813-4.158,3.212-4.158c2.244,0,3.19,1.936,3.19,4.137c0,1.826-0.813,4.136-3.234,4.136
		C720.293,48.244,719.215,46.396,719.215,44.13z M724.759,44.152c0-1.893-0.813-3.433-2.354-3.433c-1.541,0-2.333,1.562-2.333,3.366
		c0,1.166,0.396,3.389,2.354,3.389C724.275,47.474,724.759,45.406,724.759,44.152z M722.052,56.143l8.999-16.723l0.748,0.353
		l-8.999,16.744L722.052,56.143z M728.214,51.897c0-1.937,0.814-4.159,3.212-4.159c2.245,0,3.19,1.937,3.19,4.137
		c0,1.826-0.813,4.137-3.234,4.137C729.292,56.011,728.214,54.163,728.214,51.897z M733.759,51.919c0-1.893-0.814-3.433-2.354-3.433
		s-2.332,1.562-2.332,3.366c0,1.167,0.396,3.389,2.354,3.389C733.274,55.241,733.759,53.172,733.759,51.919z"/>
</g>
<g>
	<path d="M40.765,121.772c-1.175,2.199-3.175,3.624-5.749,3.624c-4.374,0-7.048-4.074-7.048-9.123s2.724-9.098,7.098-9.098
		c2.949,0,5.074,1.824,6.174,4.599l-1,0.375c-0.949-2.425-2.724-4.024-5.174-4.024c-3.648,0-5.998,3.625-5.998,8.148
		s2.299,8.173,5.948,8.173c2.125,0,3.749-1.199,4.749-3.099L40.765,121.772z"/>
	<path d="M44.169,121.072c0.8,2.199,2.475,3.374,4.724,3.374c2.824,0,4.499-1.524,4.499-3.924c0-1.6-1.25-2.874-5.224-4.324
		c-3.449-1.249-4.649-2.699-4.649-4.749c0-2.874,2.375-4.273,5.299-4.273c2.375,0,4.324,1.024,5.574,2.949l-0.825,0.649
		c-1.1-1.699-2.675-2.649-4.824-2.649c-2.224,0-4.124,1.05-4.124,3.225c0,1.875,1.025,2.725,4.199,3.949
		c4.424,1.699,5.674,3.224,5.674,5.323c0,3.05-2.475,4.774-5.648,4.774c-2.425,0-4.449-1.15-5.599-3.774L44.169,121.072z"/>
	<path d="M57.668,121.072c0.8,2.199,2.474,3.374,4.724,3.374c2.824,0,4.499-1.524,4.499-3.924c0-1.6-1.25-2.874-5.224-4.324
		c-3.449-1.249-4.649-2.699-4.649-4.749c0-2.874,2.375-4.273,5.299-4.273c2.375,0,4.324,1.024,5.574,2.949l-0.825,0.649
		c-1.1-1.699-2.675-2.649-4.824-2.649c-2.224,0-4.124,1.05-4.124,3.225c0,1.875,1.025,2.725,4.199,3.949
		c4.424,1.699,5.674,3.224,5.674,5.323c0,3.05-2.475,4.774-5.648,4.774c-2.425,0-4.449-1.15-5.599-3.774L57.668,121.072z"/>
</g>
<g>
	<path d="M243.504,107.501h1.05v12.247c0,3.549-1.949,5.648-5.023,5.648c-2.8,0-4.924-2.05-5.099-4.674l1-0.25
		c0.1,2.225,1.849,3.999,4.099,3.999c2.35,0,3.974-1.85,3.974-4.274V107.501z"/>
	<path d="M259.203,127.845l-2.124-2.975c-0.775,0.351-1.649,0.525-2.6,0.525c-4.374,0-7.048-4.049-7.048-9.098
		s2.674-9.123,7.048-9.123s7.049,4.049,7.049,9.098c0,3.524-1.3,6.573-3.574,8.098l2.049,2.899L259.203,127.845z M254.904,121.797
		l0.825-0.574l1.649,2.324c1.925-1.35,3.049-4.1,3.049-7.273c0-4.523-2.299-8.148-5.948-8.148s-5.948,3.649-5.948,8.174
		c0,4.523,2.299,8.147,5.948,8.147c0.725,0,1.399-0.125,2.024-0.399L254.904,121.797z"/>
	<path d="M272.204,125.071v-1.824c-0.8,1.449-2.274,2.149-3.799,2.149c-2.875,0-4.124-2.325-4.124-5.249v-7.598h1.024v7.873
		c0,2.524,1.175,4.049,3.199,4.049c1.725,0,3.699-1.275,3.699-4.249v-7.673h1.024v12.521H272.204z"/>
	<path d="M285.428,123.047c-0.925,1.475-2.499,2.35-4.299,2.35c-3.049,0-5.099-2.675-5.099-6.599s1.949-6.573,4.999-6.573
		c3.049,0,4.873,2.649,4.873,6.573v0.225h-8.798c0.075,3.199,1.725,5.474,4.024,5.474c1.399,0,2.774-0.8,3.499-2.024
		L285.428,123.047z M284.854,118.123c-0.2-2.975-1.65-4.999-3.824-4.999c-2.2,0-3.699,2.024-3.899,4.999H284.854z"/>
	<path d="M288.706,125.071v-12.521h1.024v1.824c0.8-1.45,2.225-2.149,3.749-2.149c0.575,0,1.125,0.125,1.574,0.274l-0.399,0.975
		c-0.35-0.149-0.775-0.274-1.3-0.274c-1.725,0-3.624,1.3-3.624,4.274v7.598H288.706z"/>
	<path d="M300.755,125.121l-4.449-12.571h1.1l3.874,11.347l4.024-11.347h1.1l-6.049,16.096c-0.399,1.05-1.149,1.625-2.175,1.625
		c-0.25,0-0.649-0.101-0.874-0.2v-0.85c0.25,0.125,0.624,0.199,0.85,0.199c0.649,0,1.1-0.375,1.374-1.124L300.755,125.121z"/>
</g>
<g>
	<path d="M453.241,125.071l-4.099-16.021l-4.124,16.021h-1.3l-4.174-17.57h1.05l3.824,16.171l4.148-16.171h1.125l4.148,16.171
		l3.824-16.171h1.05l-4.174,17.57H453.241z"/>
	<path d="M460.019,118.797c0-3.924,1.874-6.573,5.174-6.573c3.299,0,5.174,2.649,5.174,6.573s-1.875,6.599-5.174,6.599
		C461.893,125.396,460.019,122.721,460.019,118.797z M469.292,118.797c0-3.324-1.475-5.674-4.099-5.674s-4.1,2.35-4.1,5.674
		s1.476,5.698,4.1,5.698S469.292,122.122,469.292,118.797z"/>
	<path d="M473.17,125.071v-12.521h1.024v1.824c0.8-1.45,2.225-2.149,3.749-2.149c0.575,0,1.125,0.125,1.574,0.274l-0.399,0.975
		c-0.35-0.149-0.775-0.274-1.3-0.274c-1.725,0-3.624,1.3-3.624,4.274v7.598H473.17z"/>
	<path d="M488.992,125.071v-2.024c-0.8,1.475-2.124,2.35-3.899,2.35c-2.749,0-4.648-2.975-4.648-6.599s1.824-6.573,4.549-6.573
		c1.75,0,3.074,0.875,3.999,2.549v-7.272h1.024v17.57H488.992z M488.992,117.198c-0.5-2.324-1.999-4.074-3.849-4.074
		c-2.175,0-3.625,2.55-3.625,5.674s1.5,5.698,3.699,5.698c1.775,0,3.149-1.499,3.774-3.474V117.198z"/>
	<path d="M493.519,130.07v-17.521h1.024v1.999c0.8-1.475,2.124-2.324,3.899-2.324c2.749,0,4.648,2.974,4.648,6.599
		c0,3.624-1.824,6.573-4.549,6.573c-1.75,0-3.074-0.9-3.999-2.574v7.248H493.519z M494.544,120.397
		c0.5,2.324,1.999,4.099,3.849,4.099c2.175,0,3.624-2.549,3.624-5.673c0-3.125-1.499-5.699-3.698-5.699
		c-1.775,0-3.149,1.475-3.774,3.449V120.397z"/>
	<path d="M505.894,125.071v-12.521h1.024v1.824c0.8-1.45,2.225-2.149,3.749-2.149c0.575,0,1.125,0.125,1.574,0.274l-0.399,0.975
		c-0.35-0.149-0.775-0.274-1.3-0.274c-1.725,0-3.624,1.3-3.624,4.274v7.598H505.894z"/>
	<path d="M522.566,123.047c-0.925,1.475-2.499,2.35-4.299,2.35c-3.049,0-5.099-2.675-5.099-6.599s1.949-6.573,4.999-6.573
		c3.049,0,4.873,2.649,4.873,6.573v0.225h-8.798c0.075,3.199,1.725,5.474,4.024,5.474c1.399,0,2.774-0.8,3.499-2.024
		L522.566,123.047z M521.992,118.123c-0.2-2.975-1.65-4.999-3.824-4.999c-2.2,0-3.699,2.024-3.899,4.999H521.992z"/>
	<path d="M526.268,122.396c0.875,1.425,1.949,2.1,3.398,2.1c1.95,0,2.95-1.124,2.95-2.499c0-1.3-0.825-2.125-3.8-3.174
		c-2.299-0.8-3.224-1.95-3.224-3.475c0-1.725,1.374-3.124,3.874-3.124c1.55,0,2.899,0.625,3.999,2.05l-0.8,0.624
		c-0.85-1.225-2.05-1.774-3.225-1.774c-1.6,0-2.774,0.775-2.774,2.225c0,1.3,0.95,1.975,2.925,2.675
		c3.099,1.124,4.099,2.249,4.099,3.948c0,1.975-1.449,3.425-4.049,3.425c-1.75,0-3.175-0.65-4.174-2.399L526.268,122.396z"/>
	<path d="M536.744,122.396c0.874,1.425,1.949,2.1,3.398,2.1c1.95,0,2.95-1.124,2.95-2.499c0-1.3-0.825-2.125-3.8-3.174
		c-2.299-0.8-3.224-1.95-3.224-3.475c0-1.725,1.374-3.124,3.874-3.124c1.55,0,2.899,0.625,3.999,2.05l-0.8,0.624
		c-0.85-1.225-2.05-1.774-3.225-1.774c-1.6,0-2.774,0.775-2.774,2.225c0,1.3,0.95,1.975,2.925,2.675
		c3.099,1.124,4.099,2.249,4.099,3.948c0,1.975-1.449,3.425-4.049,3.425c-1.75,0-3.175-0.65-4.174-2.399L536.744,122.396z"/>
</g>
<g>
	<path d="M720.265,121.772c-1.175,2.199-3.175,3.624-5.749,3.624c-4.374,0-7.048-4.074-7.048-9.123s2.724-9.098,7.098-9.098
		c2.949,0,5.074,1.824,6.174,4.599l-1,0.375c-0.949-2.425-2.724-4.024-5.174-4.024c-3.648,0-5.998,3.625-5.998,8.148
		s2.299,8.173,5.948,8.173c2.125,0,3.749-1.199,4.749-3.099L720.265,121.772z"/>
</g>
</svg>