<!-- Generator: Adobe Illustrator 21.1.0, SVG Export Plug-In  -->
<svg version="1.1"
	 xmlns="http://www.w3.org/2000/svg" xmlns:xlink="http://www.w3.org/1999/xlink" xmlns:a="http://ns.adobe.com/AdobeSVGViewerExtensions/3.0/"
	 x="0px" y="0px" width="276.778px" height="54.219px" viewBox="0 0 276.778 54.219"
	 style="enable-background:new 0 0 276.778 54.219;" xml:space="preserve">
<style type="text/css">
	.st0{fill:none;}
	.st1{fill:#28378B;}
	.st2{font-family:'GothamBold';}
	.st3{font-size:53px;}
</style>
<defs>
</defs>
<g>
	<rect y="6.36" class="st0" width="276.778" height="47.019"/>
	<path class="st1" d="M17.172,7.685h7.526L40.598,45.05h-8.532l-3.393-8.321H12.986L9.593,45.05h-8.32L17.172,7.685z M25.758,29.521
		l-4.929-12.03l-4.929,12.03H25.758z"/>
	<path class="st1" d="M62.381,45.58c-2.155,0-3.931-0.424-5.326-1.272c-1.396-0.848-2.57-1.837-3.524-2.968v3.71h-8.057V6.359h8.057
		v14.363c0.988-1.342,2.181-2.446,3.577-3.312c1.396-0.865,3.153-1.299,5.273-1.299c1.661,0,3.268,0.318,4.823,0.954
		c1.555,0.637,2.933,1.582,4.134,2.836c1.201,1.255,2.164,2.792,2.889,4.611c0.724,1.82,1.087,3.913,1.087,6.28v0.105
		c0,2.368-0.363,4.462-1.087,6.281c-0.725,1.82-1.679,3.356-2.862,4.61c-1.184,1.255-2.553,2.2-4.107,2.836
		S64.077,45.58,62.381,45.58z M60.315,38.743c0.954,0,1.846-0.186,2.676-0.557s1.563-0.901,2.2-1.59
		c0.636-0.689,1.14-1.511,1.51-2.465c0.371-0.954,0.557-2.031,0.557-3.233v-0.105c0-1.166-0.186-2.234-0.557-3.207
		c-0.37-0.971-0.874-1.802-1.51-2.49c-0.637-0.689-1.37-1.22-2.2-1.591c-0.83-0.37-1.722-0.556-2.676-0.556
		s-1.847,0.186-2.677,0.556c-0.831,0.371-1.556,0.901-2.173,1.591c-0.619,0.688-1.113,1.52-1.484,2.49
		c-0.371,0.973-0.557,2.041-0.557,3.207v0.105c0,1.166,0.186,2.235,0.557,3.207s0.865,1.802,1.484,2.491
		c0.617,0.688,1.342,1.219,2.173,1.59C58.468,38.558,59.361,38.743,60.315,38.743z"/>
	<path class="st1" d="M95.188,45.686c-2.191,0-4.223-0.38-6.095-1.14c-1.873-0.759-3.49-1.802-4.85-3.127
		c-1.36-1.324-2.43-2.879-3.207-4.664c-0.777-1.783-1.166-3.7-1.166-5.75v-0.106c0-2.049,0.389-3.966,1.166-5.75
		s1.855-3.348,3.233-4.69s3.003-2.402,4.876-3.181c1.872-0.776,3.922-1.166,6.148-1.166c2.19,0,4.222,0.381,6.095,1.14
		c1.872,0.761,3.488,1.803,4.85,3.127c1.359,1.325,2.429,2.881,3.206,4.664c0.777,1.785,1.166,3.702,1.166,5.751v0.105
		c0,2.05-0.389,3.967-1.166,5.751s-1.854,3.348-3.232,4.69s-3.004,2.403-4.876,3.18C99.462,45.297,97.413,45.686,95.188,45.686z
		 M95.294,38.743c1.166,0,2.199-0.203,3.1-0.609c0.901-0.406,1.67-0.963,2.306-1.67c0.637-0.706,1.122-1.528,1.458-2.465
		c0.335-0.936,0.503-1.935,0.503-2.994v-0.106c0-1.06-0.177-2.058-0.529-2.994c-0.354-0.936-0.866-1.767-1.537-2.491
		c-0.672-0.724-1.467-1.298-2.385-1.723c-0.92-0.424-1.927-0.636-3.021-0.636c-1.166,0-2.199,0.204-3.101,0.609
		c-0.901,0.407-1.669,0.963-2.306,1.67c-0.636,0.707-1.122,1.528-1.457,2.464c-0.336,0.938-0.504,1.935-0.504,2.995v0.105
		c0,1.061,0.177,2.06,0.53,2.995c0.353,0.937,0.865,1.767,1.537,2.491c0.671,0.725,1.457,1.298,2.358,1.722
		C93.148,38.531,94.162,38.743,95.294,38.743z"/>
	<path class="st1" d="M125.874,45.58c-3.074,0-5.451-0.937-7.129-2.81c-1.679-1.872-2.518-4.452-2.518-7.737V16.642h8.057V32.45
		c0,1.903,0.424,3.341,1.271,4.31c0.849,0.969,2.049,1.453,3.604,1.453c1.554,0,2.782-0.484,3.684-1.453
		c0.9-0.969,1.352-2.406,1.352-4.31V16.642h8.056V45.05h-8.056v-4.062c-0.46,0.605-0.964,1.184-1.511,1.735
		c-0.549,0.552-1.158,1.041-1.829,1.468c-0.671,0.428-1.413,0.766-2.226,1.015C127.817,45.455,126.899,45.58,125.874,45.58z"/>
	<path class="st1" d="M159.052,45.526c-1.237,0-2.358-0.132-3.366-0.397c-1.007-0.265-1.873-0.732-2.597-1.404
		c-0.725-0.671-1.29-1.545-1.696-2.623s-0.609-2.446-0.609-4.107V23.532h-3.392v-6.891h3.392V9.381h8.057v7.261h6.678v6.891h-6.678
		v12.18c0,1.844,0.865,2.766,2.597,2.766c1.413,0,2.737-0.353,3.975-1.06v6.466c-0.848,0.495-1.784,0.893-2.809,1.192
		C161.577,45.376,160.394,45.526,159.052,45.526z"/>
	<path class="st1" d="M188.201,7.95h8.798l9.752,15.688l9.752-15.688h8.798v37.1h-8.056V20.829l-10.441,15.847h-0.212
		l-10.335-15.688V45.05h-8.056V7.95z"/>
	<path class="st1" d="M246.82,45.686c-2.12,0-4.091-0.354-5.91-1.06c-1.82-0.707-3.392-1.714-4.717-3.021
		c-1.325-1.307-2.358-2.853-3.101-4.637s-1.113-3.771-1.113-5.963v-0.106c0-2.014,0.345-3.922,1.034-5.724
		c0.688-1.802,1.651-3.374,2.889-4.717c1.236-1.343,2.711-2.402,4.425-3.181c1.714-0.776,3.612-1.166,5.698-1.166
		c2.366,0,4.416,0.425,6.147,1.272c1.73,0.848,3.171,1.987,4.319,3.419c1.148,1.431,1.996,3.073,2.544,4.929
		c0.548,1.854,0.821,3.789,0.821,5.804c0,0.317-0.009,0.654-0.026,1.007c-0.018,0.354-0.044,0.725-0.079,1.113h-19.77
		c0.389,1.837,1.193,3.225,2.412,4.16c1.219,0.937,2.729,1.404,4.531,1.404c1.343,0,2.544-0.229,3.604-0.688
		c1.06-0.459,2.154-1.201,3.285-2.227l4.611,4.081c-1.343,1.661-2.968,2.96-4.876,3.896S249.398,45.686,246.82,45.686z
		 M252.013,28.62c-0.247-1.803-0.884-3.26-1.908-4.373c-1.024-1.112-2.385-1.669-4.08-1.669c-1.696,0-3.066,0.548-4.108,1.643
		c-1.042,1.096-1.722,2.562-2.04,4.399H252.013z"/>
</g>
</svg>