<!-- Generator: Adobe Illustrator 21.1.0, SVG Export Plug-In  -->
<svg version="1.1"
	 xmlns="http://www.w3.org/2000/svg" xmlns:xlink="http://www.w3.org/1999/xlink" xmlns:a="http://ns.adobe.com/AdobeSVGViewerExtensions/3.0/"
	 x="0px" y="0px" width="133.877px" height="157.785px" viewBox="0 0 133.877 157.785"
	 style="enable-background:new 0 0 133.877 157.785;" xml:space="preserve">
<style type="text/css">
	.st0{fill:#FFFFFF;}
	.st1{fill:#D1D3D3;}
	.st2{fill:#FFFFFF;stroke:#272425;stroke-width:4.2749;stroke-linejoin:round;stroke-miterlimit:10;}
	.st3{fill:#A5A6A9;}
	.st4{fill:none;stroke:#272425;stroke-width:4.2749;stroke-linejoin:round;stroke-miterlimit:10;}
	.st5{fill:#AFB4B8;stroke:#272425;stroke-width:4.2749;stroke-linejoin:round;stroke-miterlimit:10;}
	.st6{fill:#6298D6;stroke:#272425;stroke-width:4.2749;stroke-linejoin:round;stroke-miterlimit:10;}
</style>
<defs>
</defs>
<g>
	<circle class="st0" cx="66.938" cy="90.847" r="66.938"/>
	<g>
		<g>
			<g>
				<g>
					<rect x="31.136" y="53.976" class="st1" width="71.605" height="55.574"/>
					<rect x="25.792" y="109.55" class="st2" width="82.293" height="7.481"/>
					<rect x="63.198" y="45.426" class="st3" width="7.481" height="8.55"/>
					<line class="st4" x1="59.018" y1="117.203" x2="47.93" y2="136.211"/>
					<line class="st4" x1="74.859" y1="117.203" x2="85.947" y2="136.211"/>
					<line class="st4" x1="66.404" y1="117.031" x2="66.404" y2="136.268"/>
				</g>
				<rect x="42.892" y="103.138" class="st5" width="20.306" height="6.412"/>
				<rect x="47.167" y="96.725" class="st6" width="20.306" height="6.412"/>
				<rect x="77.091" y="88.175" class="st6" width="6.412" height="21.375"/>
				<rect x="83.504" y="88.175" class="st5" width="6.412" height="21.375"/>
				<rect x="40.754" y="90.313" class="st5" width="20.306" height="6.412"/>
			</g>
		</g>
		<line class="st4" x1="59.991" y1="53.976" x2="74.954" y2="53.976"/>
	</g>
</g>
<polygon class="st0" points="67.438,0 61.007,13.5 54.575,27 67.438,27 80.301,27 73.87,13.5 "/>
</svg>