<!-- Generator: Adobe Illustrator 21.1.0, SVG Export Plug-In  -->
<svg version="1.1"
	 xmlns="http://www.w3.org/2000/svg" xmlns:xlink="http://www.w3.org/1999/xlink" xmlns:a="http://ns.adobe.com/AdobeSVGViewerExtensions/3.0/"
	 x="0px" y="0px" width="298.268px" height="298.197px" viewBox="0 0 298.268 298.197"
	 style="enable-background:new 0 0 298.268 298.197;" xml:space="preserve">
<style type="text/css">
	.st0{fill:none;stroke:#272425;stroke-width:1.7995;stroke-linejoin:round;stroke-dasharray:5.5795,5.5795;}
	.st1{fill:#0EB975;}
	.st2{fill:#F0F1F1;stroke:#272425;stroke-width:2.159;stroke-linejoin:round;stroke-miterlimit:10;}
	.st3{fill:#D0D809;}
	.st4{fill:#F0F1F1;stroke:#272425;stroke-width:3.7637;stroke-linejoin:round;stroke-miterlimit:10;}
	.st5{fill:#BABCBE;}
	.st6{fill:#F0F1F1;stroke:#272425;stroke-width:2.728;stroke-linejoin:round;stroke-miterlimit:10;}
	.st7{fill:#151A3F;stroke:#272425;stroke-width:2.728;stroke-linejoin:round;stroke-miterlimit:10;}
	.st8{fill-rule:evenodd;clip-rule:evenodd;fill:#F06358;}
	.st9{fill-rule:evenodd;clip-rule:evenodd;fill:#FFAE00;}
	.st10{fill-rule:evenodd;clip-rule:evenodd;fill:#4D86B8;}
	.st11{fill-rule:evenodd;clip-rule:evenodd;fill:#B6A94A;}
</style>
<defs>
</defs>
<g>
	<g>
		<g>
			<circle class="st0" cx="252.375" cy="97.366" r="44.993"/>
		</g>
		<g>
			<path class="st1" d="M260.698,133.614v-9.175c1.499-0.529,3.137-1.22,4.712-2.058l6.359,6.485c0.614,0.618,1.552,0.618,2.164,0
				l9.263-9.294c0.616-0.616,0.598-1.613-0.018-2.224l-6.494-6.241c0.839-1.574,1.522-3.972,2.05-4.721h9.175
				c0.87,0,1.276-1.2,1.276-2.072V91.17c0-0.87-0.406-1.277-1.276-1.277h-9.175c-0.528-2.999-1.217-3.542-2.057-5.114l6.486-6.562
				c0.616-0.616,0.616-1.648,0-2.265l-9.296-9.313c-0.613-0.619-1.611-0.627-2.223-0.009l-6.234,6.478
				c-1.575-0.835-3.212-1.532-4.712-2.065v-9.172c0-0.868-1.215-1.965-2.084-1.965h-13.145c-0.871,0-2.013,1.097-2.013,1.965v9.172
				c-0.75,0.533-3.176,1.226-4.744,2.061l-6.381-6.484c-0.614-0.619-1.558-0.619-2.171,0l-9.272,9.294
				c-0.614,0.616-0.602,1.612,0.014,2.227l6.501,6.637c-0.84,1.571-1.532,2.115-2.057,5.114h-9.171
				c-0.873,0-1.955,0.407-1.955,1.277v13.144c0,0.872,1.083,2.072,1.955,2.072h9.171c0.529,0.75,1.224,3.147,2.063,4.721
				l-6.493,6.365c-0.615,0.612-0.615,1.545,0,2.162l9.298,9.263c0.615,0.618,1.613,0.603,2.226-0.017l6.273-6.492
				c1.568,0.839,3.994,1.522,4.744,2.051v9.175c0,0.868,1.141,2.009,2.013,2.009h13.145
				C259.483,135.622,260.698,134.482,260.698,133.614z"/>
			<ellipse class="st2" cx="251.704" cy="98.178" rx="11.793" ry="11.795"/>
		</g>
	</g>
	<g>
		<path class="st3" d="M148.913,128.49v-15.994c2.614-0.922,5.469-2.126,8.214-3.587l11.085,11.305c1.071,1.077,2.706,1.077,3.772,0
			l16.148-16.202c1.073-1.073,1.043-2.812-0.031-3.877l-11.321-10.88c1.463-2.744,2.653-6.924,3.573-8.23h15.995
			c1.516,0,2.224-2.092,2.224-3.612V54.5c0-1.516-0.708-2.226-2.224-2.226h-15.995c-0.92-5.227-2.122-6.175-3.586-8.914
			l11.307-11.44c1.075-1.075,1.075-2.873,0-3.948l-16.205-16.235c-1.069-1.079-2.808-1.094-3.876-0.015l-10.867,11.293
			c-2.745-1.456-5.6-2.671-8.214-3.6V3.425c0-1.512-2.118-3.425-3.633-3.425h-22.916c-1.519,0-3.508,1.912-3.508,3.425v15.99
			c-1.307,0.929-5.536,2.136-8.27,3.592L99.462,11.704c-1.069-1.078-2.716-1.078-3.785,0L79.513,27.906
			c-1.071,1.075-1.049,2.81,0.024,3.883L90.87,43.36c-1.464,2.739-2.67,3.687-3.586,8.914H71.297c-1.521,0-3.409,0.71-3.409,2.226
			v22.913c0,1.52,1.888,3.612,3.409,3.612h15.987c0.921,1.307,2.134,5.487,3.596,8.23l-11.319,11.097
			c-1.072,1.067-1.072,2.694,0,3.769l16.208,16.148c1.072,1.077,2.812,1.05,3.88-0.029l10.936-11.318
			c2.734,1.463,6.963,2.653,8.27,3.575v15.994c0,1.514,1.99,3.502,3.508,3.502h22.916
			C146.794,131.992,148.913,130.004,148.913,128.49z"/>
		<path class="st4" d="M133.232,87.277c-11.348,0-20.553-9.208-20.553-20.56c0-11.357,9.205-20.562,20.553-20.562
			c11.357,0,20.561,9.205,20.561,20.562C153.793,78.069,144.589,87.277,133.232,87.277z"/>
	</g>
	<g>
		<rect x="100.821" y="251.367" class="st5" width="53.991" height="35.994"/>
		<g>
			<path class="st6" d="M252.375,97.004c0-7.489-5.565-14.242-13.384-14.242H15.916c-7.821,0-14.552,6.752-14.552,14.242v111.738
				h251.011V97.004z"/>
			<path class="st6" d="M1.364,208.742v29.88c0,7.493,6.731,12.745,14.552,12.745h223.075c7.819,0,13.384-5.252,13.384-12.745
				v-29.88H1.364z"/>
		</g>
		<circle class="st5" cx="127.455" cy="230.167" r="8.753"/>
		<rect x="1.364" y="287.361" class="st6" width="251.011" height="9.472"/>
		<rect x="17.467" y="97.918" class="st7" width="219.753" height="110.824"/>
		<g>
			<rect x="24.049" y="112.492" class="st8" width="77.969" height="4.332"/>
			<rect x="24.049" y="129.897" class="st9" width="40.927" height="4.333"/>
			<rect x="172.839" y="129.897" class="st9" width="57.799" height="4.333"/>
			<rect x="24.049" y="144.881" class="st10" width="30.063" height="4.333"/>
			<rect x="64.976" y="144.881" class="st10" width="136.509" height="4.333"/>
			<rect x="24.049" y="159.866" class="st8" width="73.949" height="4.333"/>
			<rect x="108.861" y="159.866" class="st10" width="82.559" height="4.333"/>
			<rect x="24.049" y="174.85" class="st11" width="30.063" height="4.333"/>
			<rect x="64.976" y="174.85" class="st10" width="76.507" height="4.333"/>
			<rect x="24.049" y="189.834" class="st10" width="63.228" height="4.333"/>
			<rect x="98.141" y="189.834" class="st10" width="78.57" height="4.333"/>
			<rect x="75.842" y="129.897" class="st10" width="84.998" height="4.333"/>
			<rect x="213.485" y="144.881" class="st10" width="17.153" height="4.333"/>
			<rect x="203.42" y="159.866" class="st8" width="27.218" height="4.333"/>
			<rect x="153.483" y="174.85" class="st11" width="77.155" height="4.333"/>
			<rect x="188.711" y="189.834" class="st10" width="41.927" height="4.333"/>
		</g>
	</g>
</g>
</svg>