<!-- Generator: Adobe Illustrator 21.1.0, SVG Export Plug-In  -->
<svg version="1.1"
	 xmlns="http://www.w3.org/2000/svg" xmlns:xlink="http://www.w3.org/1999/xlink" xmlns:a="http://ns.adobe.com/AdobeSVGViewerExtensions/3.0/"
	 x="0px" y="0px" width="300.444px" height="53.258px" viewBox="0 0 300.444 53.258"
	 style="enable-background:new 0 0 300.444 53.258;" xml:space="preserve">
<style type="text/css">
	.st0{fill:none;}
	.st1{fill:#28378B;}
	.st2{font-family:'GothamBold';}
	.st3{font-size:52px;}
</style>
<defs>
</defs>
<g>
	<rect y="6.239" class="st0" width="300.444" height="47.019"/>
	<path class="st1" d="M98.952,44.719c-2.774,0-5.495-0.477-8.164-1.43c-2.67-0.953-5.096-2.418-7.28-4.394l4.732-5.668
		c1.664,1.352,3.371,2.427,5.122,3.224c1.75,0.798,3.666,1.196,5.746,1.196c1.664,0,2.955-0.304,3.874-0.91
		c0.918-0.606,1.378-1.447,1.378-2.522v-0.104c0-0.521-0.097-0.979-0.287-1.378c-0.191-0.398-0.557-0.771-1.096-1.118
		c-0.538-0.346-1.286-0.693-2.241-1.04c-0.956-0.346-2.198-0.71-3.728-1.092c-1.843-0.45-3.511-0.953-5.006-1.508
		s-2.764-1.239-3.806-2.055c-1.044-0.813-1.852-1.828-2.425-3.042c-0.573-1.213-0.86-2.721-0.86-4.523v-0.104
		c0-1.664,0.31-3.163,0.93-4.498c0.619-1.334,1.489-2.486,2.608-3.458c1.12-0.97,2.456-1.716,4.011-2.235
		c1.554-0.521,3.267-0.78,5.139-0.78c2.67,0,5.122,0.398,7.358,1.196s4.29,1.941,6.162,3.432l-4.16,6.032
		c-1.63-1.109-3.224-1.984-4.784-2.626c-1.56-0.642-3.12-0.962-4.68-0.962c-1.561,0-2.73,0.304-3.51,0.909
		c-0.78,0.607-1.17,1.361-1.17,2.263v0.104c0,0.59,0.112,1.102,0.339,1.534c0.226,0.434,0.633,0.824,1.225,1.17
		c0.591,0.347,1.399,0.676,2.425,0.988c1.025,0.312,2.319,0.676,3.885,1.092c1.842,0.486,3.483,1.032,4.927,1.638
		c1.442,0.607,2.658,1.335,3.649,2.185c0.99,0.85,1.738,1.846,2.242,2.99c0.504,1.144,0.756,2.514,0.756,4.107v0.104
		c0,1.803-0.327,3.405-0.981,4.81s-1.567,2.583-2.738,3.536c-1.171,0.954-2.568,1.682-4.192,2.184
		C102.727,44.468,100.927,44.719,98.952,44.719z"/>
	<path class="st1" d="M118.4,6.239h7.904v20.228l9.256-10.14h9.464l-10.608,10.972l10.973,16.9h-9.049l-7.279-11.388l-2.756,2.912
		v8.476H118.4V6.239z"/>
	<path class="st1" d="M149.34,6.239h8.319v7.02h-8.319V6.239z M149.548,16.327h7.903v27.872h-7.903V16.327z"/>
	<path class="st1" d="M165.251,6.239h7.903v37.96h-7.903V6.239z"/>
	<path class="st1" d="M180.954,6.239h7.903v37.96h-7.903V6.239z"/>
	<path class="st1" d="M206.069,44.719c-1.976,0-3.995-0.338-6.058-1.014s-4.03-1.742-5.902-3.198l3.381-5.199
		c1.524,1.109,3.042,1.941,4.55,2.495c1.508,0.556,2.92,0.832,4.237,0.832c1.145,0,1.984-0.189,2.522-0.571
		c0.537-0.381,0.806-0.884,0.806-1.508v-0.104c0-0.416-0.155-0.78-0.468-1.092c-0.312-0.312-0.737-0.58-1.273-0.807
		c-0.538-0.225-1.153-0.441-1.847-0.649s-1.422-0.434-2.184-0.676c-0.971-0.277-1.95-0.615-2.938-1.015
		c-0.987-0.397-1.881-0.918-2.678-1.56c-0.798-0.642-1.448-1.43-1.95-2.366c-0.503-0.936-0.754-2.08-0.754-3.432v-0.104
		c0-1.421,0.269-2.678,0.806-3.77s1.266-2.02,2.185-2.782c0.918-0.762,1.993-1.334,3.224-1.716c1.23-0.381,2.557-0.572,3.979-0.572
		c1.768,0,3.562,0.286,5.382,0.858c1.82,0.571,3.492,1.36,5.018,2.365l-3.016,5.461c-1.387-0.798-2.739-1.431-4.056-1.898
		c-1.318-0.468-2.479-0.702-3.484-0.702c-0.971,0-1.699,0.182-2.184,0.546c-0.486,0.364-0.729,0.824-0.729,1.378v0.104
		c0,0.382,0.156,0.72,0.468,1.014c0.312,0.295,0.729,0.572,1.248,0.832c0.521,0.26,1.118,0.512,1.794,0.754
		c0.677,0.243,1.396,0.486,2.158,0.729c0.971,0.312,1.958,0.685,2.964,1.117c1.005,0.435,1.906,0.963,2.704,1.587
		c0.797,0.624,1.456,1.387,1.977,2.287c0.52,0.902,0.779,1.994,0.779,3.276v0.104c0,1.56-0.269,2.903-0.806,4.029
		c-0.538,1.127-1.292,2.055-2.262,2.782c-0.972,0.729-2.106,1.274-3.406,1.638C208.955,44.537,207.559,44.719,206.069,44.719z"/>
</g>
</svg>