<!-- Generator: Adobe Illustrator 21.1.0, SVG Export Plug-In  -->
<svg version="1.1"
	 xmlns="http://www.w3.org/2000/svg" xmlns:xlink="http://www.w3.org/1999/xlink" xmlns:a="http://ns.adobe.com/AdobeSVGViewerExtensions/3.0/"
	 x="0px" y="0px" width="300.444px" height="53.259px" viewBox="0 0 300.444 53.259"
	 style="enable-background:new 0 0 300.444 53.259;" xml:space="preserve">
<style type="text/css">
	.st0{fill:none;}
	.st1{fill:#0EB975;}
	.st2{font-family:'GothamBold';}
	.st3{font-size:52px;}
</style>
<defs>
</defs>
<g>
	<rect y="6.24" class="st0" width="300.444" height="47.019"/>
	<path class="st1" d="M6.86,7.799h27.404v7.124h-19.5v7.385h17.159v7.124H14.764v7.644h19.76v7.124H6.86V7.799z"/>
	<path class="st1" d="M48.303,30.056l-9.412-13.729h8.477l5.2,8.112l5.252-8.112h8.268l-9.412,13.572l9.828,14.3h-8.476
		l-5.616-8.684l-5.616,8.684h-8.268L48.303,30.056z"/>
	<path class="st1" d="M71.236,16.327h7.904v4.004c0.97-1.317,2.14-2.4,3.51-3.25c1.369-0.849,3.094-1.273,5.174-1.273
		c1.629,0,3.206,0.312,4.732,0.936c1.524,0.624,2.877,1.552,4.056,2.782c1.178,1.23,2.123,2.738,2.834,4.523
		c0.71,1.786,1.065,3.84,1.065,6.162v0.104c0,2.322-0.355,4.377-1.065,6.162c-0.711,1.785-1.647,3.294-2.808,4.523
		c-1.162,1.231-2.506,2.158-4.03,2.782c-1.526,0.624-3.12,0.936-4.784,0.936c-2.115,0-3.857-0.416-5.226-1.247
		c-1.37-0.832-2.522-1.803-3.458-2.912v11.96h-7.904V16.327z M85.795,38.011c0.937,0,1.812-0.182,2.626-0.546
		c0.814-0.363,1.534-0.884,2.158-1.56s1.118-1.482,1.482-2.418c0.363-0.937,0.546-1.993,0.546-3.172v-0.104
		c0-1.144-0.183-2.191-0.546-3.146c-0.364-0.953-0.858-1.769-1.482-2.444s-1.344-1.196-2.158-1.56
		c-0.814-0.364-1.689-0.546-2.626-0.546c-0.936,0-1.812,0.182-2.626,0.546c-0.814,0.363-1.525,0.884-2.132,1.56
		s-1.092,1.491-1.456,2.444c-0.364,0.954-0.546,2.002-0.546,3.146v0.104c0,1.144,0.182,2.192,0.546,3.146
		c0.364,0.954,0.85,1.769,1.456,2.444s1.317,1.196,2.132,1.56C83.984,37.829,84.86,38.011,85.795,38.011z"/>
	<path class="st1" d="M119.543,44.823c-2.08,0-4.013-0.347-5.798-1.04c-1.786-0.693-3.328-1.681-4.628-2.964
		c-1.301-1.282-2.314-2.799-3.042-4.55c-0.729-1.75-1.093-3.7-1.093-5.851v-0.104c0-1.977,0.339-3.849,1.015-5.616
		s1.62-3.311,2.834-4.628c1.213-1.317,2.66-2.357,4.342-3.12c1.681-0.762,3.544-1.144,5.59-1.144c2.322,0,4.333,0.416,6.032,1.248
		c1.698,0.832,3.111,1.949,4.238,3.354c1.126,1.404,1.958,3.016,2.496,4.836c0.536,1.82,0.806,3.718,0.806,5.694
		c0,0.312-0.009,0.642-0.026,0.987c-0.018,0.348-0.044,0.711-0.078,1.093h-19.396c0.381,1.803,1.17,3.163,2.366,4.082
		c1.195,0.919,2.678,1.378,4.445,1.378c1.317,0,2.496-0.226,3.536-0.677c1.04-0.449,2.114-1.178,3.225-2.184l4.523,4.004
		c-1.317,1.63-2.912,2.904-4.784,3.822C124.275,44.363,122.074,44.823,119.543,44.823z M124.639,28.079
		c-0.243-1.768-0.867-3.198-1.872-4.29c-1.006-1.092-2.34-1.638-4.004-1.638s-3.008,0.538-4.03,1.612s-1.689,2.514-2.002,4.315
		H124.639z"/>
	<path class="st1" d="M138.211,16.327h7.904v5.616c0.797-1.906,1.889-3.433,3.275-4.576s3.259-1.664,5.616-1.56v8.268h-0.416
		c-2.635,0-4.706,0.798-6.214,2.392c-1.508,1.596-2.262,4.074-2.262,7.437v10.296h-7.904V16.327z"/>
	<path class="st1" d="M160.104,6.239h8.319v7.02h-8.319V6.239z M160.312,16.327h7.903v27.872h-7.903V16.327z"/>
	<path class="st1" d="M188.859,44.823c-2.08,0-4.013-0.347-5.798-1.04c-1.786-0.693-3.328-1.681-4.628-2.964
		c-1.301-1.282-2.314-2.799-3.042-4.55c-0.729-1.75-1.093-3.7-1.093-5.851v-0.104c0-1.977,0.339-3.849,1.015-5.616
		s1.62-3.311,2.834-4.628c1.213-1.317,2.66-2.357,4.342-3.12c1.681-0.762,3.544-1.144,5.59-1.144c2.322,0,4.333,0.416,6.032,1.248
		c1.698,0.832,3.111,1.949,4.238,3.354c1.126,1.404,1.958,3.016,2.496,4.836c0.536,1.82,0.806,3.718,0.806,5.694
		c0,0.312-0.009,0.642-0.026,0.987c-0.018,0.348-0.044,0.711-0.078,1.093h-19.396c0.381,1.803,1.17,3.163,2.366,4.082
		c1.195,0.919,2.678,1.378,4.445,1.378c1.317,0,2.496-0.226,3.536-0.677c1.04-0.449,2.114-1.178,3.225-2.184l4.523,4.004
		c-1.317,1.63-2.912,2.904-4.784,3.822S191.389,44.823,188.859,44.823z M193.954,28.079c-0.243-1.768-0.867-3.198-1.872-4.29
		c-1.006-1.092-2.34-1.638-4.004-1.638s-3.008,0.538-4.03,1.612s-1.689,2.514-2.002,4.315H193.954z"/>
	<path class="st1" d="M207.527,16.327h7.904v3.984c0.449-0.593,0.943-1.161,1.481-1.702c0.537-0.541,1.135-1.021,1.794-1.439
		c0.658-0.419,1.387-0.751,2.185-0.995c0.797-0.245,1.697-0.367,2.703-0.367c3.017,0,5.348,0.919,6.994,2.756
		c1.646,1.838,2.471,4.368,2.471,7.592v18.044h-7.904v-15.51c0-1.867-0.416-3.277-1.248-4.228s-2.011-1.427-3.536-1.427
		s-2.729,0.477-3.614,1.427c-0.884,0.95-1.325,2.36-1.325,4.228v15.51h-7.904V16.327z"/>
	<path class="st1" d="M253.079,44.823c-2.08,0-4.014-0.382-5.799-1.144c-1.785-0.763-3.319-1.795-4.602-3.095
		c-1.283-1.3-2.288-2.825-3.016-4.576c-0.729-1.75-1.093-3.613-1.093-5.59v-0.104c0-1.977,0.364-3.849,1.093-5.616
		c0.728-1.768,1.732-3.311,3.016-4.628c1.282-1.317,2.816-2.357,4.602-3.12c1.785-0.762,3.753-1.144,5.902-1.144
		c2.634,0,4.818,0.416,6.552,1.248s3.259,1.976,4.576,3.432l-4.836,5.2c-0.901-0.937-1.829-1.682-2.782-2.236
		c-0.953-0.554-2.141-0.832-3.562-0.832c-1.006,0-1.916,0.2-2.73,0.598c-0.814,0.399-1.525,0.945-2.132,1.639
		s-1.075,1.5-1.404,2.418c-0.329,0.919-0.493,1.897-0.493,2.938v0.104c0,1.075,0.164,2.08,0.493,3.016
		c0.329,0.937,0.807,1.751,1.431,2.444s1.369,1.239,2.235,1.638c0.866,0.399,1.838,0.598,2.912,0.598
		c1.317,0,2.471-0.268,3.458-0.806c0.988-0.537,1.968-1.256,2.938-2.158l4.628,4.681c-1.353,1.49-2.895,2.713-4.628,3.666
		C258.104,44.347,255.851,44.823,253.079,44.823z"/>
	<path class="st1" d="M282.823,44.823c-2.08,0-4.013-0.347-5.798-1.04c-1.786-0.693-3.328-1.681-4.628-2.964
		c-1.301-1.282-2.314-2.799-3.042-4.55c-0.729-1.75-1.093-3.7-1.093-5.851v-0.104c0-1.977,0.339-3.849,1.015-5.616
		s1.62-3.311,2.834-4.628c1.213-1.317,2.66-2.357,4.342-3.12c1.681-0.762,3.544-1.144,5.59-1.144c2.322,0,4.333,0.416,6.032,1.248
		c1.698,0.832,3.111,1.949,4.238,3.354c1.126,1.404,1.958,3.016,2.496,4.836c0.536,1.82,0.806,3.718,0.806,5.694
		c0,0.312-0.009,0.642-0.026,0.987c-0.018,0.348-0.044,0.711-0.078,1.093h-19.396c0.381,1.803,1.17,3.163,2.366,4.082
		c1.195,0.919,2.678,1.378,4.445,1.378c1.317,0,2.496-0.226,3.536-0.677c1.04-0.449,2.114-1.178,3.225-2.184l4.523,4.004
		c-1.317,1.63-2.912,2.904-4.784,3.822S285.353,44.823,282.823,44.823z M287.918,28.079c-0.243-1.768-0.867-3.198-1.872-4.29
		c-1.006-1.092-2.34-1.638-4.004-1.638s-3.008,0.538-4.03,1.612s-1.689,2.514-2.002,4.315H287.918z"/>
</g>
</svg>