<!-- Generator: Adobe Illustrator 21.1.0, SVG Export Plug-In  -->
<svg version="1.1"
	 xmlns="http://www.w3.org/2000/svg" xmlns:xlink="http://www.w3.org/1999/xlink" xmlns:a="http://ns.adobe.com/AdobeSVGViewerExtensions/3.0/"
	 x="0px" y="0px" width="762.088px" height="130.989px" viewBox="0 0 762.088 130.989"
	 style="enable-background:new 0 0 762.088 130.989;" xml:space="preserve">
<style type="text/css">
	.st0{fill:#28378B;}
	.st1{opacity:0.45;fill:#28378B;}
	.st2{fill:#D0D809;}
	.st3{opacity:0.3;fill:#D0D809;}
	.st4{fill:#3884A6;}
	.st5{opacity:0.3;fill:#3884A6;}
	.st6{fill:#0EB975;}
	.st7{opacity:0.3;fill:#0EB975;}
	.st8{font-family:'DistrictPro-Thin';}
	.st9{font-size:22px;}
	.st10{font-size:25px;}
</style>
<defs>
</defs>
<g>
	<path class="st0" d="M23.592,23.603l-9.52-9.514C5.377,22.783,0,35.067,0,48.067h13.463C13.463,39.067,17.334,29.861,23.592,23.603
		z"/>
	<path class="st0" d="M48.044,82.624v13.463c13,0,25.278-5.377,33.972-14.072l-9.52-9.52C66.238,78.754,57.044,82.624,48.044,82.624
		z"/>
	<path class="st0" d="M96.087,48.067H82.624c0,10-3.871,18.183-10.128,24.44l9.52,9.526C90.71,73.339,96.087,61.067,96.087,48.067z"
		/>
	<path class="st0" d="M48.044,13.463V0c-13,0-25.278,5.378-33.972,14.072l9.52,9.52C29.85,17.334,38.044,13.463,48.044,13.463z"/>
	<path class="st0" d="M23.592,72.496l-9.273,9.273l9.273-9.262c-6.258-6.258-10.128-14.44-10.128-24.44H0
		c0,27,21.044,48.02,48.044,48.02V82.624C38.044,82.624,29.85,78.754,23.592,72.496z"/>
	<path class="st1" d="M48.044,13.463c9,0,18.194,3.871,24.452,10.128l9.314-9.314C73.049,5.515,61.041,0,48.044,0V13.463z"/>
	<path class="st0" d="M81.811,14.279l-9.315,9.324c6.258,6.258,10.128,15.464,10.128,24.464h13.463
		C96.088,35.065,90.574,23.046,81.811,14.279z"/>
</g>
<g>
	<path class="st2" d="M245.592,23.603l-9.52-9.514C227.377,22.783,222,35.067,222,48.067h13.463
		C235.463,39.067,239.334,29.861,245.592,23.603z"/>
	<path class="st2" d="M270.044,82.624v13.463c13,0,25.278-5.377,33.972-14.072l-9.52-9.52
		C288.238,78.754,279.044,82.624,270.044,82.624z"/>
	<path class="st2" d="M318.087,48.067h-13.463c0,10-3.871,18.183-10.128,24.44l9.52,9.526
		C312.71,73.339,318.087,61.067,318.087,48.067z"/>
	<path class="st2" d="M270.044,13.463V0c-13,0-25.278,5.378-33.972,14.072l9.52,9.52C251.85,17.334,260.044,13.463,270.044,13.463z"
		/>
	<path class="st2" d="M245.592,72.496l-9.273,9.273l9.273-9.262c-6.258-6.258-10.128-14.44-10.128-24.44H222
		c0,27,21.044,48.02,48.044,48.02V82.624C260.044,82.624,251.85,78.754,245.592,72.496z"/>
	<g>
		<path class="st3" d="M270.044,0v13.463c9,0,18.194,3.871,24.452,10.128l9.273-9.273l-9.273,9.285
			c2.894,2.894,5.269,6.423,6.995,10.267l12.184-5.501C305.978,11.832,289.077,0,270.044,0z"/>
		<path class="st2" d="M301.491,33.87c2.006,4.467,3.133,9.359,3.133,14.197h13.463c0-6.967-1.595-13.645-4.413-19.698
			L301.491,33.87z"/>
	</g>
</g>
<g>
	<path class="st4" d="M467.592,23.603l-9.52-9.514C449.377,22.783,444,35.067,444,48.067h13.463
		C457.463,39.067,461.334,29.861,467.592,23.603z"/>
	<path class="st4" d="M492.044,82.624v13.463c13,0,25.278-5.377,33.972-14.072l-9.52-9.52
		C510.238,78.754,501.044,82.624,492.044,82.624z"/>
	<path class="st4" d="M540.087,48.067h-13.463c0,10-3.871,18.183-10.128,24.44l9.52,9.526
		C534.71,73.339,540.087,61.067,540.087,48.067z"/>
	<path class="st4" d="M492.044,13.463V0c-13,0-25.278,5.378-33.972,14.072l9.52,9.52C473.85,17.334,482.044,13.463,492.044,13.463z"
		/>
	<path class="st4" d="M467.592,72.496l-9.273,9.273l9.273-9.262c-6.258-6.258-10.128-14.44-10.128-24.44H444
		c0,27,21.044,48.02,48.044,48.02V82.624C482.044,82.624,473.85,78.754,467.592,72.496z"/>
	<g>
		<path class="st5" d="M492.044,0v13.463c9,0,18.194,3.871,24.452,10.128l9.273-9.273l-9.273,9.285
			c2.894,2.894,5.269,6.423,6.995,10.267l12.184-5.501C527.978,11.832,511.077,0,492.044,0z"/>
		<path class="st4" d="M523.491,33.87c2.006,4.467,3.133,9.359,3.133,14.197h13.463c0-6.967-1.595-13.645-4.413-19.698
			L523.491,33.87z"/>
	</g>
</g>
<g>
	<path class="st6" d="M689.592,23.603l-9.52-9.514C671.377,22.783,666,35.067,666,48.067h13.463
		C679.463,39.067,683.334,29.861,689.592,23.603z"/>
	<path class="st6" d="M714.044,82.624v13.463c13,0,25.278-5.377,33.972-14.072l-9.52-9.52
		C732.238,78.754,723.044,82.624,714.044,82.624z"/>
	<path class="st6" d="M762.087,48.067h-13.463c0,10-3.871,18.183-10.128,24.44l9.52,9.526
		C756.71,73.339,762.087,61.067,762.087,48.067z"/>
	<path class="st6" d="M714.044,13.463V0c-13,0-25.278,5.378-33.972,14.072l9.52,9.52C695.85,17.334,704.044,13.463,714.044,13.463z"
		/>
	<path class="st6" d="M689.592,72.496l-9.273,9.273l9.273-9.262c-6.258-6.258-10.128-14.44-10.128-24.44H666
		c0,27,21.044,48.02,48.044,48.02V82.624C704.044,82.624,695.85,78.754,689.592,72.496z"/>
	<g>
		<path class="st7" d="M714.044,0v13.463c9,0,18.194,3.871,24.452,10.128l9.273-9.273l-9.273,9.285
			c2.894,2.894,5.269,6.423,6.995,10.267l12.184-5.501C749.978,11.832,733.077,0,714.044,0z"/>
		<path class="st6" d="M745.491,33.87c2.006,4.467,3.133,9.359,3.133,14.197h13.463c0-6.967-1.595-13.645-4.413-19.698
			L745.491,33.87z"/>
	</g>
</g>
<g>
	<path d="M29.389,54.449c0.703,0.484,1.848,0.748,2.75,0.748c3.676,0,4.951-3.763,5.26-7.877c-0.947,2.068-2.662,2.948-4.643,2.948
		c-3.213,0-5.061-2.09-5.061-5.082c0-3.213,2.023-5.215,5.213-5.215c4.049,0,5.348,3.256,5.348,6.469
		c0,5.104-1.717,9.571-6.248,9.571c-1.035,0-2.398-0.33-3.059-0.771L29.389,54.449z M32.887,40.785
		c-2.662,0-4.246,1.849-4.246,4.489c0,2.552,1.629,4.181,4.203,4.181c2.617,0,4.4-1.849,4.4-4.247
		C37.245,43.887,36.21,40.785,32.887,40.785z"/>
	<path d="M40.456,47.98c0-4.951,1.781-8.009,5.279-8.009c3.5,0,5.281,3.058,5.281,8.009c0,4.973-1.781,8.031-5.281,8.031
		C42.237,56.011,40.456,52.953,40.456,47.98z M50.071,47.958c0-4.048-1.189-7.173-4.357-7.173c-3.191,0-4.312,3.146-4.312,7.218
		c0,4.048,1.121,7.194,4.312,7.194S50.071,52.029,50.071,47.958z"/>
	<path d="M53.216,44.13c0-1.937,0.812-4.158,3.211-4.158c2.244,0,3.191,1.936,3.191,4.137c0,1.826-0.814,4.136-3.234,4.136
		C54.294,48.244,53.216,46.396,53.216,44.13z M58.759,44.152c0-1.893-0.812-3.433-2.354-3.433s-2.332,1.562-2.332,3.366
		c0,1.166,0.396,3.389,2.354,3.389C58.276,47.474,58.759,45.406,58.759,44.152z M56.053,56.143l8.998-16.723l0.748,0.353
		l-8.998,16.744L56.053,56.143z M62.214,51.897c0-1.937,0.814-4.159,3.213-4.159c2.244,0,3.189,1.937,3.189,4.137
		c0,1.826-0.812,4.137-3.234,4.137C63.292,56.011,62.214,54.163,62.214,51.897z M67.759,51.919c0-1.893-0.814-3.433-2.354-3.433
		c-1.541,0-2.332,1.562-2.332,3.366c0,1.167,0.395,3.389,2.354,3.389C67.274,55.241,67.759,53.172,67.759,51.919z"/>
</g>
<g>
	<path d="M260.279,51.588c0,2.465-1.716,4.423-5.303,4.423c-3.564,0-5.28-1.958-5.28-4.423c0-2.068,1.1-3.433,3.256-4.114
		c-1.914-0.683-2.662-2.024-2.662-3.564c0-2.2,1.65-3.938,4.687-3.938c3.059,0,4.709,1.738,4.709,3.938
		c0,1.54-0.748,2.882-2.663,3.564C259.179,48.155,260.279,49.519,260.279,51.588z M254.976,47.869c-2.354,0-4.335,1.276-4.335,3.675
		c0,2.223,1.65,3.652,4.335,3.652c2.706,0,4.356-1.43,4.356-3.652C259.333,49.145,257.352,47.869,254.976,47.869z M254.976,40.784
		c-2.685,0-3.74,1.562-3.74,3.146c0,1.826,1.474,3.19,3.74,3.19c2.288,0,3.763-1.364,3.763-3.19
		C258.739,42.346,257.682,40.784,254.976,40.784z"/>
	<path d="M263.248,52.885c0.704,1.101,1.914,2.311,4.202,2.311c2.883,0,4.555-1.76,4.555-4.532c0-2.553-1.65-4.181-4.312-4.181
		c-1.452,0-2.971,0.748-3.828,2.09l-0.814-0.264l0.396-8.053h8.494v0.857h-7.657l-0.374,6.228c1.078-1.167,2.376-1.673,3.96-1.673
		c3.19,0,5.083,1.937,5.083,4.951c0,3.345-2.112,5.391-5.522,5.391c-2.003,0-3.961-0.88-4.863-2.597L263.248,52.885z"/>
	<path d="M275.216,44.129c0-1.937,0.813-4.158,3.212-4.158c2.244,0,3.19,1.936,3.19,4.137c0,1.826-0.813,4.136-3.234,4.136
		C276.294,48.243,275.216,46.395,275.216,44.129z M280.76,44.151c0-1.893-0.813-3.433-2.354-3.433c-1.541,0-2.333,1.562-2.333,3.366
		c0,1.166,0.396,3.389,2.354,3.389C280.276,47.473,280.76,45.405,280.76,44.151z M278.053,56.142l8.999-16.723l0.748,0.353
		l-8.999,16.744L278.053,56.142z M284.215,51.896c0-1.937,0.814-4.159,3.212-4.159c2.245,0,3.19,1.937,3.19,4.137
		c0,1.826-0.813,4.137-3.234,4.137C285.293,56.01,284.215,54.162,284.215,51.896z M289.76,51.918c0-1.893-0.814-3.433-2.354-3.433
		s-2.332,1.562-2.332,3.366c0,1.167,0.396,3.389,2.354,3.389C289.275,55.24,289.76,53.172,289.76,51.918z"/>
</g>
<g>
	<path d="M482.279,51.589c0,2.465-1.716,4.423-5.303,4.423c-3.564,0-5.28-1.958-5.28-4.423c0-2.068,1.1-3.433,3.256-4.114
		c-1.914-0.683-2.662-2.024-2.662-3.564c0-2.2,1.65-3.938,4.687-3.938c3.059,0,4.709,1.738,4.709,3.938
		c0,1.54-0.748,2.882-2.663,3.564C481.179,48.156,482.279,49.52,482.279,51.589z M476.976,47.87c-2.354,0-4.335,1.276-4.335,3.675
		c0,2.223,1.65,3.652,4.335,3.652c2.706,0,4.356-1.43,4.356-3.652C481.333,49.146,479.352,47.87,476.976,47.87z M476.976,40.785
		c-2.685,0-3.74,1.562-3.74,3.146c0,1.826,1.474,3.19,3.74,3.19c2.288,0,3.763-1.364,3.763-3.19
		C480.739,42.347,479.682,40.785,476.976,40.785z"/>
	<path d="M485.248,52.886c0.704,1.101,1.914,2.311,4.202,2.311c2.883,0,4.555-1.76,4.555-4.532c0-2.553-1.65-4.181-4.312-4.181
		c-1.452,0-2.971,0.748-3.828,2.09l-0.814-0.264l0.396-8.053h8.494v0.857h-7.657l-0.374,6.228c1.078-1.167,2.376-1.673,3.96-1.673
		c3.19,0,5.083,1.937,5.083,4.951c0,3.345-2.112,5.391-5.522,5.391c-2.003,0-3.961-0.88-4.863-2.597L485.248,52.886z"/>
	<path d="M497.216,44.13c0-1.937,0.813-4.158,3.212-4.158c2.244,0,3.19,1.936,3.19,4.137c0,1.826-0.813,4.136-3.234,4.136
		C498.294,48.244,497.216,46.396,497.216,44.13z M502.76,44.152c0-1.893-0.813-3.433-2.354-3.433c-1.541,0-2.333,1.562-2.333,3.366
		c0,1.166,0.396,3.389,2.354,3.389C502.276,47.474,502.76,45.406,502.76,44.152z M500.053,56.143l8.999-16.723l0.748,0.353
		l-8.999,16.744L500.053,56.143z M506.215,51.897c0-1.937,0.814-4.159,3.212-4.159c2.245,0,3.19,1.937,3.19,4.137
		c0,1.826-0.813,4.137-3.234,4.137C507.293,56.011,506.215,54.163,506.215,51.897z M511.76,51.919c0-1.893-0.814-3.433-2.354-3.433
		s-2.332,1.562-2.332,3.366c0,1.167,0.396,3.389,2.354,3.389C511.275,55.241,511.76,53.172,511.76,51.919z"/>
</g>
<g>
	<path d="M704.279,51.589c0,2.465-1.716,4.423-5.303,4.423c-3.564,0-5.28-1.958-5.28-4.423c0-2.068,1.1-3.433,3.256-4.114
		c-1.914-0.683-2.662-2.024-2.662-3.564c0-2.2,1.65-3.938,4.687-3.938c3.059,0,4.709,1.738,4.709,3.938
		c0,1.54-0.748,2.882-2.663,3.564C703.179,48.156,704.279,49.52,704.279,51.589z M698.976,47.87c-2.354,0-4.335,1.276-4.335,3.675
		c0,2.223,1.65,3.652,4.335,3.652c2.706,0,4.356-1.43,4.356-3.652C703.333,49.146,701.352,47.87,698.976,47.87z M698.976,40.785
		c-2.685,0-3.74,1.562-3.74,3.146c0,1.826,1.474,3.19,3.74,3.19c2.288,0,3.763-1.364,3.763-3.19
		C702.739,42.347,701.682,40.785,698.976,40.785z"/>
	<path d="M707.248,52.886c0.704,1.101,1.914,2.311,4.202,2.311c2.883,0,4.555-1.76,4.555-4.532c0-2.553-1.65-4.181-4.312-4.181
		c-1.452,0-2.971,0.748-3.828,2.09l-0.814-0.264l0.396-8.053h8.494v0.857h-7.657l-0.374,6.228c1.078-1.167,2.376-1.673,3.96-1.673
		c3.19,0,5.083,1.937,5.083,4.951c0,3.345-2.112,5.391-5.522,5.391c-2.003,0-3.961-0.88-4.863-2.597L707.248,52.886z"/>
	<path d="M719.216,44.13c0-1.937,0.813-4.158,3.212-4.158c2.244,0,3.19,1.936,3.19,4.137c0,1.826-0.813,4.136-3.234,4.136
		C720.294,48.244,719.216,46.396,719.216,44.13z M724.76,44.152c0-1.893-0.813-3.433-2.354-3.433c-1.541,0-2.333,1.562-2.333,3.366
		c0,1.166,0.396,3.389,2.354,3.389C724.276,47.474,724.76,45.406,724.76,44.152z M722.053,56.143l8.999-16.723l0.748,0.353
		l-8.999,16.744L722.053,56.143z M728.215,51.897c0-1.937,0.814-4.159,3.212-4.159c2.245,0,3.19,1.937,3.19,4.137
		c0,1.826-0.813,4.137-3.234,4.137C729.293,56.011,728.215,54.163,728.215,51.897z M733.76,51.919c0-1.893-0.814-3.433-2.354-3.433
		s-2.332,1.562-2.332,3.366c0,1.167,0.396,3.389,2.354,3.389C733.275,55.241,733.76,53.172,733.76,51.919z"/>
</g>
<g>
	<path d="M30.966,125.064v-8.623H20.918v8.623h-1.049v-17.57h1.049v7.998h10.048v-7.998h1.05v17.57H30.966z"/>
	<path d="M39.867,125.064v-16.621h-5.349v-0.949H46.29v0.925h-5.373v16.646H39.867z"/>
	<path d="M62.764,125.064v-15.347l-6.073,15.347h-0.774l-6.074-15.347v15.347h-1.049v-17.57h1.225l6.273,15.896l6.298-15.896h1.225
		v17.57H62.764z"/>
	<path d="M67.568,125.064v-17.57h1.049v16.62h8.974v0.95H67.568z"/>
</g>
<g>
	<path d="M228.467,107.494h1.05v12.247c0,3.549-1.949,5.648-5.023,5.648c-2.8,0-4.924-2.05-5.099-4.674l1-0.25
		c0.1,2.225,1.849,3.999,4.099,3.999c2.35,0,3.974-1.85,3.974-4.274V107.494z"/>
	<path d="M242.117,125.064c-0.975,0-1.35-0.475-1.35-1.399v-0.425c-1,1.324-2.85,2.1-4.574,2.1c-2.024,0-3.874-1.075-3.874-3.6
		c0-2.924,2.524-4.299,5.249-4.299c1.074,0,2.199,0.225,3.199,0.675v-1.725c0-2.05-1.625-3.249-3.399-3.249
		c-1.274,0-2.675,0.675-3.524,2.074l-0.8-0.6c0.85-1.5,2.625-2.399,4.449-2.399c2.199,0,4.299,1.274,4.299,4.349v7.148
		c0,0.25,0.15,0.425,0.475,0.425h0.4v0.925H242.117z M240.767,119.19c-0.726-0.499-1.925-0.824-3.125-0.824
		c-2.324,0-4.249,1.25-4.249,3.274c0,1.85,1.325,2.774,2.899,2.774c1.525,0,3.374-0.9,4.475-2.5V119.19z"/>
	<path d="M248.218,125.064l-4.424-12.521h1.125l3.849,11.372l4.049-11.372h1.1l-4.674,12.521H248.218z"/>
	<path d="M264.891,125.064c-0.975,0-1.35-0.475-1.35-1.399v-0.425c-1,1.324-2.85,2.1-4.574,2.1c-2.024,0-3.874-1.075-3.874-3.6
		c0-2.924,2.524-4.299,5.249-4.299c1.074,0,2.199,0.225,3.199,0.675v-1.725c0-2.05-1.625-3.249-3.399-3.249
		c-1.274,0-2.675,0.675-3.524,2.074l-0.8-0.6c0.85-1.5,2.624-2.399,4.449-2.399c2.199,0,4.299,1.274,4.299,4.349v7.148
		c0,0.25,0.15,0.425,0.475,0.425h0.4v0.925H264.891z M263.542,119.19c-0.726-0.499-1.925-0.824-3.125-0.824
		c-2.324,0-4.249,1.25-4.249,3.274c0,1.85,1.325,2.774,2.899,2.774c1.525,0,3.375-0.9,4.475-2.5V119.19z"/>
	<path d="M268.368,122.389c0.875,1.425,1.949,2.1,3.398,2.1c1.95,0,2.95-1.124,2.95-2.499c0-1.3-0.825-2.125-3.8-3.174
		c-2.299-0.8-3.224-1.95-3.224-3.475c0-1.725,1.374-3.124,3.874-3.124c1.55,0,2.899,0.625,3.999,2.05l-0.8,0.624
		c-0.85-1.225-2.05-1.774-3.225-1.774c-1.6,0-2.774,0.775-2.774,2.225c0,1.3,0.95,1.975,2.925,2.675
		c3.099,1.124,4.099,2.249,4.099,3.948c0,1.975-1.449,3.425-4.049,3.425c-1.75,0-3.175-0.65-4.174-2.399L268.368,122.389z"/>
	<path d="M287.266,123.04c-0.925,1.475-2.3,2.35-4.124,2.35c-3.175,0-5.174-2.649-5.174-6.573c0-3.925,1.999-6.599,5.174-6.599
		c1.824,0,3.249,0.85,4.174,2.324l-0.85,0.6c-0.825-1.249-1.925-1.999-3.324-1.999c-2.475,0-4.1,2.324-4.1,5.674
		c0,3.324,1.625,5.648,4.1,5.648c1.399,0,2.475-0.775,3.274-2L287.266,123.04z"/>
	<path d="M290.068,125.064v-12.521h1.024v1.824c0.8-1.45,2.225-2.149,3.749-2.149c0.575,0,1.125,0.125,1.574,0.274l-0.399,0.975
		c-0.35-0.149-0.775-0.274-1.3-0.274c-1.725,0-3.624,1.3-3.624,4.274v7.598H290.068z"/>
	<path d="M298.593,108.068c0-0.475,0.399-0.875,0.899-0.875c0.475,0,0.875,0.4,0.875,0.875c0,0.5-0.4,0.9-0.875,0.9
		C298.992,108.968,298.593,108.568,298.593,108.068z M298.968,125.064v-12.521h1.024v12.521H298.968z"/>
	<path d="M303.668,130.063v-17.521h1.024v1.999c0.8-1.475,2.124-2.324,3.899-2.324c2.749,0,4.648,2.974,4.648,6.599
		c0,3.624-1.824,6.573-4.549,6.573c-1.75,0-3.074-0.9-3.999-2.574v7.248H303.668z M304.692,120.39
		c0.5,2.324,1.999,4.099,3.849,4.099c2.175,0,3.624-2.549,3.624-5.673c0-3.125-1.499-5.699-3.698-5.699
		c-1.775,0-3.149,1.475-3.774,3.449V120.39z"/>
	<path d="M320.441,125.014c-0.425,0.25-0.975,0.375-1.425,0.375c-1.449,0-2.574-1.125-2.574-3.074v-8.823h-2.024v-0.949h2.024
		v-5.049h1.024v5.049h2.925v0.949h-2.925v8.948c0,1.249,0.825,1.975,1.7,1.975c0.425,0,0.874-0.15,1.274-0.476V125.014z"/>
</g>
<g>
	<path d="M445.019,125.064v-17.57h7.073c2.374,0,4.224,1.874,4.224,4.198c0,1.774-1.075,3.25-2.675,3.85
		c1.975,0.6,3.449,2.374,3.449,4.599c0,2.725-2.199,4.924-4.948,4.924H445.019z M451.718,115.167c1.874,0,3.523-1.5,3.523-3.374
		c0-1.85-1.374-3.374-3.299-3.374h-5.874v6.748H451.718z M451.992,124.139c2.35,0,3.999-1.8,3.999-4.024
		c0-2.249-1.8-4.023-4.273-4.023h-5.649v8.048H451.992z"/>
	<path d="M459.144,118.791c0-3.924,1.874-6.573,5.174-6.573c3.299,0,5.174,2.649,5.174,6.573s-1.875,6.599-5.174,6.599
		C461.018,125.389,459.144,122.714,459.144,118.791z M468.417,118.791c0-3.324-1.475-5.674-4.099-5.674s-4.1,2.35-4.1,5.674
		s1.476,5.698,4.1,5.698S468.417,122.115,468.417,118.791z"/>
	<path d="M471.893,118.791c0-3.924,1.874-6.573,5.174-6.573c3.299,0,5.174,2.649,5.174,6.573s-1.875,6.599-5.174,6.599
		C473.767,125.389,471.893,122.714,471.893,118.791z M481.166,118.791c0-3.324-1.475-5.674-4.099-5.674c-2.625,0-4.1,2.35-4.1,5.674
		s1.475,5.698,4.1,5.698C479.691,124.489,481.166,122.115,481.166,118.791z"/>
	<path d="M489.442,125.014c-0.425,0.25-0.975,0.375-1.425,0.375c-1.449,0-2.574-1.125-2.574-3.074v-8.823h-2.024v-0.949h2.024
		v-5.049h1.024v5.049h2.925v0.949h-2.925v8.948c0,1.249,0.825,1.975,1.7,1.975c0.425,0,0.874-0.15,1.274-0.476V125.014z"/>
	<path d="M492.368,122.389c0.875,1.425,1.949,2.1,3.398,2.1c1.95,0,2.95-1.124,2.95-2.499c0-1.3-0.825-2.125-3.8-3.174
		c-2.299-0.8-3.224-1.95-3.224-3.475c0-1.725,1.374-3.124,3.874-3.124c1.55,0,2.899,0.625,3.999,2.05l-0.8,0.624
		c-0.85-1.225-2.05-1.774-3.225-1.774c-1.6,0-2.774,0.775-2.774,2.225c0,1.3,0.95,1.975,2.925,2.675
		c3.099,1.124,4.099,2.249,4.099,3.948c0,1.975-1.449,3.425-4.049,3.425c-1.75,0-3.175-0.65-4.174-2.399L492.368,122.389z"/>
	<path d="M507.192,125.014c-0.425,0.25-0.975,0.375-1.425,0.375c-1.449,0-2.574-1.125-2.574-3.074v-8.823h-2.024v-0.949h2.024
		v-5.049h1.024v5.049h2.925v0.949h-2.925v8.948c0,1.249,0.825,1.975,1.7,1.975c0.425,0,0.874-0.15,1.274-0.476V125.014z"/>
	<path d="M510.193,125.064v-12.521h1.024v1.824c0.8-1.45,2.225-2.149,3.749-2.149c0.575,0,1.125,0.125,1.574,0.274l-0.399,0.975
		c-0.35-0.149-0.775-0.274-1.3-0.274c-1.725,0-3.624,1.3-3.624,4.274v7.598H510.193z"/>
	<path d="M527.016,125.064c-0.975,0-1.35-0.475-1.35-1.399v-0.425c-1,1.324-2.85,2.1-4.574,2.1c-2.024,0-3.874-1.075-3.874-3.6
		c0-2.924,2.524-4.299,5.249-4.299c1.074,0,2.199,0.225,3.199,0.675v-1.725c0-2.05-1.625-3.249-3.399-3.249
		c-1.274,0-2.675,0.675-3.524,2.074l-0.8-0.6c0.85-1.5,2.624-2.399,4.449-2.399c2.199,0,4.299,1.274,4.299,4.349v7.148
		c0,0.25,0.15,0.425,0.475,0.425h0.4v0.925H527.016z M525.667,119.19c-0.726-0.499-1.925-0.824-3.125-0.824
		c-2.324,0-4.249,1.25-4.249,3.274c0,1.85,1.325,2.774,2.899,2.774c1.525,0,3.375-0.9,4.475-2.5V119.19z"/>
	<path d="M530.318,130.063v-17.521h1.024v1.999c0.8-1.475,2.124-2.324,3.899-2.324c2.749,0,4.648,2.974,4.648,6.599
		c0,3.624-1.824,6.573-4.549,6.573c-1.75,0-3.074-0.9-3.999-2.574v7.248H530.318z M531.343,120.39
		c0.5,2.324,1.999,4.099,3.849,4.099c2.175,0,3.624-2.549,3.624-5.673c0-3.125-1.499-5.699-3.698-5.699
		c-1.775,0-3.149,1.475-3.774,3.449V120.39z"/>
</g>
<g>
	<path d="M699.967,107.494h1.05v12.247c0,3.549-1.949,5.648-5.023,5.648c-2.8,0-4.924-2.05-5.099-4.674l1-0.25
		c0.1,2.225,1.849,3.999,4.099,3.999c2.35,0,3.974-1.85,3.974-4.274V107.494z"/>
	<path d="M713.617,125.064c-0.975,0-1.35-0.475-1.35-1.399v-0.425c-1,1.324-2.85,2.1-4.574,2.1c-2.024,0-3.874-1.075-3.874-3.6
		c0-2.924,2.524-4.299,5.249-4.299c1.074,0,2.199,0.225,3.199,0.675v-1.725c0-2.05-1.625-3.249-3.399-3.249
		c-1.274,0-2.675,0.675-3.524,2.074l-0.8-0.6c0.85-1.5,2.625-2.399,4.449-2.399c2.199,0,4.299,1.274,4.299,4.349v7.148
		c0,0.25,0.15,0.425,0.475,0.425h0.4v0.925H713.617z M712.267,119.19c-0.726-0.499-1.925-0.824-3.125-0.824
		c-2.324,0-4.249,1.25-4.249,3.274c0,1.85,1.325,2.774,2.899,2.774c1.525,0,3.374-0.9,4.475-2.5V119.19z"/>
	<path d="M719.718,125.064l-4.424-12.521h1.125l3.849,11.372l4.049-11.372h1.1l-4.674,12.521H719.718z"/>
	<path d="M736.391,125.064c-0.975,0-1.35-0.475-1.35-1.399v-0.425c-1,1.324-2.85,2.1-4.574,2.1c-2.024,0-3.874-1.075-3.874-3.6
		c0-2.924,2.524-4.299,5.249-4.299c1.074,0,2.199,0.225,3.199,0.675v-1.725c0-2.05-1.625-3.249-3.399-3.249
		c-1.274,0-2.675,0.675-3.524,2.074l-0.8-0.6c0.85-1.5,2.624-2.399,4.449-2.399c2.199,0,4.299,1.274,4.299,4.349v7.148
		c0,0.25,0.15,0.425,0.475,0.425h0.4v0.925H736.391z M735.042,119.19c-0.726-0.499-1.925-0.824-3.125-0.824
		c-2.324,0-4.249,1.25-4.249,3.274c0,1.85,1.325,2.774,2.899,2.774c1.525,0,3.375-0.9,4.475-2.5V119.19z"/>
</g>
</svg>