<!-- Generator: Adobe Illustrator 21.1.0, SVG Export Plug-In  -->
<svg version="1.1"
	 xmlns="http://www.w3.org/2000/svg" xmlns:xlink="http://www.w3.org/1999/xlink" xmlns:a="http://ns.adobe.com/AdobeSVGViewerExtensions/3.0/"
	 x="0px" y="0px" width="133.877px" height="157.785px" viewBox="0 0 133.877 157.785"
	 style="enable-background:new 0 0 133.877 157.785;" xml:space="preserve">
<style type="text/css">
	.st0{fill:#FFFFFF;}
	.st1{fill-rule:evenodd;clip-rule:evenodd;fill:#1D1C15;}
	.st2{fill:#1D1C15;}
</style>
<defs>
</defs>
<g>
	<circle class="st0" cx="66.938" cy="90.847" r="66.938"/>
	<g>
		<path class="st1" d="M66.938,45.541c-25.652,0-46.453,20.797-46.453,46.453c0,20.524,13.31,37.936,31.767,44.079
			c2.321,0.43,3.174-1.008,3.174-2.235c0-1.107-0.043-4.767-0.063-8.649c-12.923,2.81-15.65-5.481-15.65-5.481
			c-2.113-5.369-5.158-6.797-5.158-6.797c-4.215-2.883,0.318-2.824,0.318-2.824c4.664,0.328,7.121,4.788,7.121,4.788
			c4.143,7.101,10.867,5.048,13.518,3.861c0.417-3.002,1.62-5.052,2.949-6.212c-10.318-1.174-21.165-5.158-21.165-22.957
			c0-5.071,1.815-9.215,4.787-12.469c-0.482-1.17-2.073-5.895,0.45-12.294c0,0,3.901-1.248,12.777,4.762
			c3.706-1.029,7.68-1.546,11.627-1.564c3.948,0.018,7.925,0.534,11.637,1.564c8.867-6.01,12.762-4.762,12.762-4.762
			c2.529,6.399,0.938,11.123,0.456,12.294c2.979,3.253,4.781,7.397,4.781,12.469c0,17.842-10.867,21.77-21.211,22.92
			c1.666,1.442,3.151,4.268,3.151,8.602c0,6.215-0.053,11.218-0.053,12.748c0,1.236,0.836,2.685,3.19,2.229
			c18.448-6.149,31.741-23.556,31.741-44.073C113.391,66.338,92.593,45.541,66.938,45.541z"/>
		<path class="st2" d="M38.08,112.237c-0.102,0.231-0.466,0.3-0.796,0.142c-0.337-0.152-0.526-0.466-0.417-0.698
			c0.1-0.237,0.463-0.303,0.8-0.145C38.004,111.688,38.196,112.006,38.08,112.237L38.08,112.237z M37.508,111.813"/>
		<path class="st2" d="M39.962,114.336c-0.222,0.205-0.655,0.11-0.949-0.215c-0.304-0.324-0.361-0.757-0.136-0.965
			c0.228-0.205,0.648-0.109,0.953,0.215C40.134,113.698,40.193,114.128,39.962,114.336L39.962,114.336z M39.518,113.86"/>
		<path class="st2" d="M41.793,117.011c-0.285,0.198-0.75,0.013-1.038-0.4c-0.285-0.413-0.285-0.909,0.007-1.107
			c0.288-0.198,0.747-0.02,1.038,0.39C42.084,116.313,42.084,116.809,41.793,117.011L41.793,117.011z M41.793,117.011"/>
		<path class="st2" d="M44.302,119.596c-0.255,0.281-0.797,0.205-1.194-0.178c-0.406-0.374-0.519-0.906-0.264-1.187
			c0.258-0.281,0.804-0.202,1.203,0.178C44.451,118.783,44.573,119.318,44.302,119.596L44.302,119.596z M44.302,119.596"/>
		<path class="st2" d="M47.764,121.097c-0.113,0.364-0.635,0.529-1.161,0.374c-0.526-0.159-0.869-0.585-0.763-0.953
			c0.109-0.367,0.634-0.539,1.164-0.373C47.529,120.303,47.873,120.726,47.764,121.097L47.764,121.097z M47.764,121.097"/>
		<path class="st2" d="M51.566,121.375c0.013,0.383-0.433,0.701-0.986,0.708c-0.555,0.013-1.005-0.297-1.011-0.675
			c0-0.387,0.436-0.701,0.992-0.711C51.113,120.687,51.566,120.995,51.566,121.375L51.566,121.375z M51.566,121.375"/>
		<path class="st2" d="M55.103,120.773c0.066,0.373-0.318,0.757-0.866,0.859c-0.539,0.099-1.038-0.132-1.107-0.503
			c-0.067-0.383,0.324-0.767,0.862-0.866C54.541,120.168,55.033,120.393,55.103,120.773L55.103,120.773z M55.103,120.773"/>
	</g>
</g>
<polygon class="st0" points="66.938,0 60.507,13.5 54.075,27 66.938,27 79.801,27 73.37,13.5 "/>
</svg>